# xmcd CD database file
#
# Track frame offsets:
#	150
#	16290
#	33640
#	49536
#	66371
#	81231
#	100292
#	120747
#	130330
#	144365
#	164703
#	179203
#
# Disc length: 2991 seconds
#
# Revision: 5
# Processed by: cddbd v1.5.2PL0 Copyright (c) Steve Scherf et al.
# Submitted via: CDex 1.70beta2
#
DISCID=b00bad0c
DTITLE=Калинов мост - Руда
DYEAR=2001
DGENRE=Folk/Rock
TTITLE0=Праздники прошли
TTITLE1=Милая моя (Santimento)
TTITLE2=Брату
TTITLE3=Ловушка
TTITLE4=Страдания
TTITLE5=Самим собой
TTITLE6=Отношения
TTITLE7=Кто я?
TTITLE8=Красные собаки
TTITLE9=Гой
TTITLE10=Дикарь
TTITLE11=Казак
EXTD=YEAR: 2001
EXTT0=
EXTT1=
EXTT2=
EXTT3=
EXTT4=
EXTT5=
EXTT6=
EXTT7=
EXTT8=
EXTT9=
EXTT10=
EXTT11=
PLAYORDER=
